<svg id="visual" viewBox="0 0 900 600" width="900" height="600" xmlns="http://www.w3.org/2000/svg" xmlns:xlink="http://www.w3.org/1999/xlink" version="1.1"><rect x="0" y="0" width="900" height="600" fill="#ffffff"></rect><path d="M0 294L18.8 293.2C37.7 292.3 75.3 290.7 112.8 285.2C150.3 279.7 187.7 270.3 225.2 276C262.7 281.7 300.3 302.3 337.8 302.5C375.3 302.7 412.7 282.3 450.2 293.5C487.7 304.7 525.3 347.3 562.8 363.5C600.3 379.7 637.7 369.3 675.2 337.2C712.7 305 750.3 251 787.8 254.5C825.3 258 862.7 319 881.3 349.5L900 380L900 601L881.3 601C862.7 601 825.3 601 787.8 601C750.3 601 712.7 601 675.2 601C637.7 601 600.3 601 562.8 601C525.3 601 487.7 601 450.2 601C412.7 601 375.3 601 337.8 601C300.3 601 262.7 601 225.2 601C187.7 601 150.3 601 112.8 601C75.3 601 37.7 601 18.8 601L0 601Z" fill="#238905" stroke-linecap="round" stroke-linejoin="miter"></path></svg>